<svg id="Layer_1" data-name="Layer 1" xmlns="http://www.w3.org/2000/svg" xmlns:xlink="http://www.w3.org/1999/xlink" viewBox="0 0 30.69 30.69"><defs><style>.cls-1{fill:url(#linear-gradient);}.cls-2{fill:#fff;}</style><linearGradient id="linear-gradient" x1="15.34" y1="1006.63" x2="15.34" y2="971.46" gradientTransform="translate(0 -974)" gradientUnits="userSpaceOnUse"><stop offset="0.1" stop-color="#ffd879"/><stop offset="0.15" stop-color="#fccb76"/><stop offset="0.26" stop-color="#f5aa6c"/><stop offset="0.4" stop-color="#e9755e"/><stop offset="0.45" stop-color="#e45f58"/><stop offset="0.68" stop-color="#d22a9c"/><stop offset="1" stop-color="#6968df"/></linearGradient></defs><title>iconfinder_Popular_Social_Media-08_2329265</title><g id="Icons"><g id="Icons-2" data-name="Icons"><circle class="cls-1" cx="15.34" cy="15.34" r="15.34"/><path class="cls-2" d="M15.34,19.06a3.72,3.72,0,1,1,3.72-3.72A3.72,3.72,0,0,1,15.34,19.06Zm0-6.43a2.72,2.72,0,1,0,2.72,2.71A2.72,2.72,0,0,0,15.34,12.63Z"/><circle class="cls-2" cx="19.59" cy="11.23" r="0.46"/><path class="cls-2" d="M18.54,22.61H12.15a4.07,4.07,0,0,1-4.07-4.07V12.15a4.07,4.07,0,0,1,4.07-4.07h6.39a4.07,4.07,0,0,1,4.07,4.07v6.39A4.08,4.08,0,0,1,18.54,22.61ZM12.15,9.08a3.07,3.07,0,0,0-3.07,3.07v6.39a3.08,3.08,0,0,0,3.07,3.07h6.39a3.08,3.08,0,0,0,3.07-3.07V12.15a3.07,3.07,0,0,0-3.07-3.07Z"/></g></g></svg>